<mxfile host="app.diagrams.net" modified="2023-07-24T09:21:12.903Z" agent="Mozilla/5.0 (Windows NT 10.0; Win64; x64) AppleWebKit/537.36 (KHTML, like Gecko) Chrome/108.0.0.0 Safari/537.36" version="21.6.5" etag="HJUtmQYtwQIGHnbCDM04" type="github">
  <diagram name="Page-1" id="xw0ag5S9wc2PPyrpebdU">
    <mxGraphModel>
      <root>
        <mxCell id="0" />
        <mxCell id="1" parent="0" />
      </root>
    </mxGraphModel>
  </diagram>
</mxfile>
